<svg xmlns="http://www.w3.org/2000/svg" version="1.1" width="1142px" height="1142px" style="shape-rendering:geometricPrecision; text-rendering:geometricPrecision; image-rendering:optimizeQuality; fill-rule:evenodd; clip-rule:evenodd" xmlns:xlink="http://www.w3.org/1999/xlink">
<g><path style="opacity:0.96" fill="#014a92" d="M 563.5,41.5 C 567.182,41.3347 570.848,41.5014 574.5,42C 702.907,83.187 819.574,145.187 924.5,228C 944.615,246.11 964.782,264.276 985,282.5C 997.637,296.138 1010.64,309.471 1024,322.5C 1036.62,338.127 1049.62,353.46 1063,368.5C 1075,385.167 1087,401.833 1099,418.5C 1108.45,596.352 1070.78,763.352 986,919.5C 961.007,964.455 933.674,1007.79 904,1049.5C 756.168,1098.85 604.668,1115.35 449.5,1099C 377.19,1090.81 306.857,1074.47 238.5,1050C 131.841,901.701 67.0073,736.868 44,555.5C 38.3426,510 35.676,464.334 36,418.5C 100.861,326.973 179.027,248.806 270.5,184C 361.241,122.632 458.907,75.1316 563.5,41.5 Z"/></g>
<g><path style="opacity:1" fill="#6dcdf4" d="M 566.5,63.5 C 596.388,71.963 625.721,82.1297 654.5,94C 699.348,113.508 743.181,135.008 786,158.5C 902.213,226.029 999.547,314.695 1078,424.5C 1083.32,541.337 1067.48,655.17 1030.5,766C 996.205,860.958 949.871,949.124 891.5,1030.5C 884.576,1033.32 877.576,1035.98 870.5,1038.5C 713.805,1085.23 554.805,1095.4 393.5,1069C 345.1,1060.53 297.766,1048.2 251.5,1032C 186.271,938.787 136.438,837.621 102,728.5C 72.4972,628.98 57.8305,527.314 58,423.5C 140.184,310.299 242.017,219.465 363.5,151C 405.165,128.5 447.831,108.167 491.5,90C 516.374,80.5512 541.374,71.7178 566.5,63.5 Z"/></g>
<g><path style="opacity:1" fill="#d8271e" d="M 555.5,163.5 C 564.337,162.473 572.671,163.973 580.5,168C 584.577,171.985 586.577,176.819 586.5,182.5C 582.481,182.646 578.481,182.979 574.5,183.5C 573.406,176.75 569.406,173.75 562.5,174.5C 552.595,174.189 550.262,178.022 555.5,186C 562.455,188.155 569.455,190.155 576.5,192C 587.678,197.506 591.511,206.34 588,218.5C 585.093,225.382 579.926,229.548 572.5,231C 553.685,235.115 542.352,227.948 538.5,209.5C 542.541,209.325 546.541,209.158 550.5,209C 553.29,219.4 559.957,223.066 570.5,220C 577.194,216.103 578.194,211.103 573.5,205C 564.614,202.612 555.947,199.612 547.5,196C 540.515,189.442 538.681,181.608 542,172.5C 545.517,167.838 550.017,164.838 555.5,163.5 Z"/></g>
<g><path style="opacity:1" fill="#8d8ba3" d="M 607.5,165.5 C 615.74,165.657 623.74,166.657 631.5,168.5C 623.263,168.304 615.263,167.304 607.5,165.5 Z"/></g>
<g><path style="opacity:1" fill="#d9261e" d="M 607.5,165.5 C 615.263,167.304 623.263,168.304 631.5,168.5C 638.957,170.058 646.624,171.058 654.5,171.5C 654.577,175.215 654.244,178.881 653.5,182.5C 648.154,181.998 642.821,181.332 637.5,180.5C 636.5,180.833 635.5,181.167 634.5,181.5C 632.09,198.448 629.923,215.448 628,232.5C 626.647,233.704 624.981,234.371 623,234.5C 620.472,234.275 617.972,233.942 615.5,233.5C 617.911,215.212 619.911,196.879 621.5,178.5C 615.5,177.833 609.5,177.167 603.5,176.5C 604.114,172.865 604.448,169.198 604.5,165.5C 605.5,165.5 606.5,165.5 607.5,165.5 Z"/></g>
<g><path style="opacity:1" fill="#d9251c" d="M 520.5,166.5 C 524.466,188.216 527.466,210.216 529.5,232.5C 525.519,233.021 521.519,233.354 517.5,233.5C 514.833,211.828 512.166,190.161 509.5,168.5C 513.337,168.069 517.003,167.402 520.5,166.5 Z"/></g>
<g><path style="opacity:1" fill="#d82820" d="M 442.5,196.5 C 442.435,193.572 441.768,190.905 440.5,188.5C 438.843,185.991 439.176,183.825 441.5,182C 454.353,178.533 467.353,176.2 480.5,175C 487.277,176.61 491.611,180.777 493.5,187.5C 495.052,193.524 494.218,199.19 491,204.5C 488.43,206.869 485.596,208.869 482.5,210.5C 492.509,216.998 501.509,224.831 509.5,234C 504.602,235.811 499.602,236.811 494.5,237C 487.531,231.032 480.864,224.699 474.5,218C 469.934,216.691 465.267,216.191 460.5,216.5C 462.025,225.601 464.025,234.601 466.5,243.5C 462.477,245.675 458.311,246.342 454,245.5C 450.301,229.044 446.468,212.711 442.5,196.5 Z"/></g>
<g><path style="opacity:1" fill="#d8271e" d="M 676.5,177.5 C 691.696,181.899 706.696,186.899 721.5,192.5C 720.5,195.167 719.5,197.833 718.5,200.5C 717.833,200.833 717.167,201.167 716.5,201.5C 705.876,197.958 695.209,194.625 684.5,191.5C 683.198,196.218 682.032,200.885 681,205.5C 690.237,209.581 699.737,213.081 709.5,216C 709.957,216.414 710.291,216.914 710.5,217.5C 709.547,220.701 708.214,223.701 706.5,226.5C 696.539,222.789 686.539,219.622 676.5,217C 674.5,222.333 672.5,227.667 670.5,233C 681.609,237.536 692.942,241.369 704.5,244.5C 703.978,247.568 703.145,250.568 702,253.5C 701.275,254.059 700.442,254.392 699.5,254.5C 684.541,250.015 669.875,244.848 655.5,239C 662.996,218.679 669.996,198.179 676.5,177.5 Z"/></g>
<g><path style="opacity:1" fill="#6dcbf2" d="M 468.5,186.5 C 479.505,185.336 483.339,190.002 480,200.5C 472.742,203.356 465.242,205.356 457.5,206.5C 456.372,200.859 455.372,195.192 454.5,189.5C 459.412,189.102 464.079,188.102 468.5,186.5 Z"/></g>
<g><path style="opacity:1" fill="#d8281f" d="M 418.5,189.5 C 416.083,200.446 412.75,211.446 408.5,222.5C 421.129,231.488 433.796,240.488 446.5,249.5C 443,251.615 439.333,253.448 435.5,255C 434.167,255.667 432.833,255.667 431.5,255C 422.5,248.5 413.5,242 404.5,235.5C 403.201,236.09 402.368,237.09 402,238.5C 401.595,242.266 400.761,245.933 399.5,249.5C 402.103,255.711 404.436,262.045 406.5,268.5C 403.338,269.659 400.171,270.992 397,272.5C 396.5,272.167 396,271.833 395.5,271.5C 386.265,252.024 377.265,232.357 368.5,212.5C 371.353,211.823 373.853,210.49 376,208.5C 377.578,207.453 379.078,207.453 380.5,208.5C 383.857,217.079 387.69,225.413 392,233.5C 396.787,221.806 400.787,209.806 404,197.5C 408.686,194.41 413.52,191.744 418.5,189.5 Z"/></g>
<g><path style="opacity:1" fill="#a26c79" d="M 440.5,188.5 C 441.768,190.905 442.435,193.572 442.5,196.5C 440.96,194.162 440.294,191.495 440.5,188.5 Z"/></g>
<g><path style="opacity:1" fill="#d8271f" d="M 744.5,257.5 C 744.323,247.981 743.656,238.648 742.5,229.5C 742.361,227.663 741.694,227.33 740.5,228.5C 734.66,240.851 728.327,252.851 721.5,264.5C 718.833,263.167 716.167,261.833 713.5,260.5C 712.417,259.635 712.251,258.635 713,257.5C 722.249,237.998 732.249,218.998 743,200.5C 746.228,202.355 749.561,204.022 753,205.5C 754.217,222.522 755.55,239.522 757,256.5C 763.167,244.167 769.333,231.833 775.5,219.5C 779.504,219.31 783.17,220.643 786.5,223.5C 776.961,242.744 767.295,261.911 757.5,281C 753.373,280.53 749.539,279.03 746,276.5C 745.654,270.143 745.154,263.81 744.5,257.5 Z"/></g>
<g><path style="opacity:1" fill="#8697b1" d="M 742.5,229.5 C 743.656,238.648 744.323,247.981 744.5,257.5C 742.775,248.393 742.108,239.06 742.5,229.5 Z"/></g>
<g><path style="opacity:1" fill="#d8281f" d="M 313.5,247.5 C 321.324,246.105 327.657,248.438 332.5,254.5C 330.134,257.701 327.3,260.367 324,262.5C 319.235,258.758 314.402,258.591 309.5,262C 307.667,263.833 305.833,265.667 304,267.5C 302.195,272.69 303.862,276.024 309,277.5C 318.301,273.788 327.801,270.788 337.5,268.5C 354.766,272.032 360.266,282.032 354,298.5C 346.354,310.505 335.521,315.672 321.5,314C 316.974,312.747 313.64,310.081 311.5,306C 313.873,303.291 316.54,300.791 319.5,298.5C 329.117,305.065 337.117,303.398 343.5,293.5C 346.267,286.777 344.1,282.777 337,281.5C 329.792,283.853 322.625,286.353 315.5,289C 304.562,291.447 296.728,287.614 292,277.5C 290.776,271.696 291.776,266.362 295,261.5C 299.956,255.02 306.123,250.353 313.5,247.5 Z"/></g>
<g><path style="opacity:1" fill="#d8271e" d="M 831.5,254.5 C 836.607,258.432 841.607,262.599 846.5,267C 838.497,280.497 831.83,294.33 826.5,308.5C 838.755,299.458 851.255,290.791 864,282.5C 868.804,286.153 873.304,290.153 877.5,294.5C 863.886,311.781 849.552,328.448 834.5,344.5C 831.849,342.35 829.349,340.017 827,337.5C 826.333,336.833 826.333,336.167 827,335.5C 837.667,323.5 848.333,311.5 859,299.5C 859.667,298.833 859.667,298.167 859,297.5C 844.745,307.711 830.578,318.044 816.5,328.5C 813.015,326.107 810.015,323.274 807.5,320C 815.721,304.395 823.388,288.895 830.5,273.5C 819.833,285.833 809.167,298.167 798.5,310.5C 797.635,311.583 796.635,311.749 795.5,311C 793.112,308.95 791.112,306.616 789.5,304C 803.322,287.345 817.322,270.845 831.5,254.5 Z"/></g>
<g><path style="opacity:1" fill="#4da4d5" d="M 608.5,274.5 C 582.167,274.5 555.833,274.5 529.5,274.5C 529.5,323.833 529.5,373.167 529.5,422.5C 471.833,422.5 414.167,422.5 356.5,422.5C 356.167,422.5 355.833,422.5 355.5,422.5C 412.998,421.501 470.664,421.168 528.5,421.5C 528.5,372.167 528.5,322.833 528.5,273.5C 555.339,273.169 582.005,273.502 608.5,274.5 Z"/></g>
<g><path style="opacity:1" fill="#05418a" d="M 608.5,274.5 C 608.5,323.5 608.5,372.5 608.5,421.5C 666.998,422.499 725.664,422.832 784.5,422.5C 784.5,449.5 784.5,476.5 784.5,503.5C 725.664,503.168 666.998,503.501 608.5,504.5C 608.5,533.5 608.5,562.5 608.5,591.5C 615.484,591.236 622.151,592.236 628.5,594.5C 628.918,595.222 629.584,595.722 630.5,596C 628.203,596.018 625.869,595.851 623.5,595.5C 614.856,594.493 606.189,594.327 597.5,595C 593.603,596.019 589.936,597.519 586.5,599.5C 585.957,599.44 585.624,599.107 585.5,598.5C 586.612,597.735 587.279,596.735 587.5,595.5C 588.514,594.326 589.847,593.66 591.5,593.5C 592.498,565.005 592.831,536.338 592.5,507.5C 592.833,507.5 593.167,507.5 593.5,507.5C 593.167,535.841 593.5,564.175 594.5,592.5C 595.107,592.376 595.44,592.043 595.5,591.5C 596.167,591.5 596.833,591.5 597.5,591.5C 598.833,591.5 600.167,591.5 601.5,591.5C 601.5,560.167 601.5,528.833 601.5,497.5C 660.167,497.5 718.833,497.5 777.5,497.5C 777.5,474.833 777.5,452.167 777.5,429.5C 718.833,429.5 660.167,429.5 601.5,429.5C 601.5,379.833 601.5,330.167 601.5,280.5C 579.833,280.5 558.167,280.5 536.5,280.5C 536.5,330.167 536.5,379.833 536.5,429.5C 478.833,429.5 421.167,429.5 363.5,429.5C 362.503,451.994 362.169,474.661 362.5,497.5C 420.5,497.5 478.5,497.5 536.5,497.5C 536.5,528.5 536.5,559.5 536.5,590.5C 538.948,591.473 541.615,591.806 544.5,591.5C 544.611,592.117 544.944,592.617 545.5,593C 541.644,593.177 537.977,593.677 534.5,594.5C 530.236,594.344 526.236,595.011 522.5,596.5C 520.585,596.784 518.919,596.451 517.5,595.5C 521.264,594.008 525.264,593.008 529.5,592.5C 529.5,563.167 529.5,533.833 529.5,504.5C 472.002,503.501 414.336,503.168 356.5,503.5C 356.5,476.5 356.5,449.5 356.5,422.5C 414.167,422.5 471.833,422.5 529.5,422.5C 529.5,373.167 529.5,323.833 529.5,274.5C 555.833,274.5 582.167,274.5 608.5,274.5 Z"/></g>
<g><path style="opacity:1" fill="#fdfdfd" d="M 601.5,429.5 C 660.167,429.5 718.833,429.5 777.5,429.5C 777.5,452.167 777.5,474.833 777.5,497.5C 718.833,497.5 660.167,497.5 601.5,497.5C 600.502,528.329 600.169,559.329 600.5,590.5C 599.209,590.263 598.209,590.596 597.5,591.5C 596.833,591.5 596.167,591.5 595.5,591.5C 594.833,563.5 594.167,535.5 593.5,507.5C 593.167,507.5 592.833,507.5 592.5,507.5C 591.5,507.5 590.5,507.5 589.5,507.5C 583.587,504.261 577.92,500.594 572.5,496.5C 580.441,491.051 585.941,483.717 589,474.5C 589.667,469.833 589.667,465.167 589,460.5C 584.722,449.608 580.722,438.608 577,427.5C 576.484,421.782 576.484,416.115 577,410.5C 565.042,420.756 556.875,433.422 552.5,448.5C 551.836,450.978 551.503,453.645 551.5,456.5C 551.294,460.469 551.961,464.135 553.5,467.5C 556.365,476.901 561.031,485.235 567.5,492.5C 563.355,490.65 559.021,490.15 554.5,491C 552.34,491.996 550.673,493.496 549.5,495.5C 548.502,526.996 548.168,558.662 548.5,590.5C 544.5,590.5 540.5,590.5 536.5,590.5C 536.5,559.5 536.5,528.5 536.5,497.5C 479.002,496.501 421.336,496.168 363.5,496.5C 363.5,474.167 363.5,451.833 363.5,429.5C 421.167,429.5 478.833,429.5 536.5,429.5C 537.499,380.336 537.832,331.003 537.5,281.5C 558.5,281.5 579.5,281.5 600.5,281.5C 600.168,331.003 600.501,380.336 601.5,429.5 Z"/></g>
<g><path style="opacity:1" fill="#95afce" d="M 601.5,429.5 C 600.501,380.336 600.168,331.003 600.5,281.5C 579.5,281.5 558.5,281.5 537.5,281.5C 537.832,331.003 537.499,380.336 536.5,429.5C 536.5,379.833 536.5,330.167 536.5,280.5C 558.167,280.5 579.833,280.5 601.5,280.5C 601.5,330.167 601.5,379.833 601.5,429.5 Z"/></g>
<g><path style="opacity:1" fill="#d8261e" d="M 254.5,298.5 C 276.17,307.493 297.837,316.827 319.5,326.5C 316.827,329.672 313.994,332.672 311,335.5C 306.11,333.638 301.276,331.638 296.5,329.5C 289.797,335.202 283.797,341.536 278.5,348.5C 280.706,353.079 283.039,357.579 285.5,362C 283.021,365.647 280.021,368.813 276.5,371.5C 266.095,350.524 256.095,329.357 246.5,308C 248.988,304.679 251.655,301.512 254.5,298.5 Z"/></g>
<g><path style="opacity:1" fill="#6accf3" d="M 261.5,315.5 C 261.56,314.957 261.893,314.624 262.5,314.5C 270.167,318 277.833,321.5 285.5,325C 281.652,329.016 277.652,332.849 273.5,336.5C 269.726,329.275 265.726,322.275 261.5,315.5 Z"/></g>
<g><path style="opacity:1" fill="#d8271f" d="M 904.5,329.5 C 905.552,329.351 906.552,329.517 907.5,330C 908.977,332.445 910.81,334.612 913,336.5C 914.187,338.044 914.52,339.711 914,341.5C 902.658,361.526 890.825,381.193 878.5,400.5C 875.707,397.072 873.04,393.572 870.5,390C 872.782,385.269 875.449,380.769 878.5,376.5C 873.724,369.883 868.724,363.383 863.5,357C 858.542,356.816 853.876,357.982 849.5,360.5C 844.752,358.406 841.752,354.739 840.5,349.5C 862.12,343.434 883.453,336.767 904.5,329.5 Z"/></g>
<g><path style="opacity:1" fill="#d8271f" d="M 224.5,331.5 C 227.09,332.128 229.423,333.295 231.5,335C 232.574,335.739 233.241,336.739 233.5,338C 230.682,342.156 227.848,346.323 225,350.5C 224.219,351.944 224.386,353.277 225.5,354.5C 239.5,364.167 253.5,373.833 267.5,383.5C 268.583,384.365 268.749,385.365 268,386.5C 266.167,389 264.333,391.5 262.5,394C 246.842,384.647 231.508,374.48 216.5,363.5C 212.506,368.334 208.673,373.334 205,378.5C 202.667,376.833 200.333,375.167 198,373.5C 197.333,372.167 197.333,370.833 198,369.5C 207.468,357.212 216.302,344.545 224.5,331.5 Z"/></g>
<g><path style="opacity:1" fill="#74c3e7" d="M 894.5,344.5 C 895.873,344.343 897.207,344.51 898.5,345C 894.362,352.12 889.862,358.953 885,365.5C 881.029,361.564 877.529,357.231 874.5,352.5C 881.153,349.62 887.82,346.953 894.5,344.5 Z"/></g>
<g><path style="opacity:1" fill="#d8271e" d="M 940.5,376.5 C 947.974,388.951 953.974,402.118 958.5,416C 956.722,426.988 950.222,432.822 939,433.5C 932.927,433.048 928.094,430.381 924.5,425.5C 920.334,436.831 914.834,447.498 908,457.5C 905.304,453.44 903.137,449.107 901.5,444.5C 905.793,435.712 910.293,427.046 915,418.5C 916.151,413.466 914.985,409.133 911.5,405.5C 903.676,409.245 896.009,413.245 888.5,417.5C 886.012,414.534 884.012,411.201 882.5,407.5C 883.605,406.108 884.939,404.941 886.5,404C 904.717,395.059 922.717,385.892 940.5,376.5 Z"/></g>
<g><path style="opacity:1" fill="#db2b22" d="M 569.5,385.5 C 570.833,385.5 572.167,385.5 573.5,385.5C 573.5,392.833 573.5,400.167 573.5,407.5C 572.167,407.5 570.833,407.5 569.5,407.5C 569.5,400.167 569.5,392.833 569.5,385.5 Z"/></g>
<g><path style="opacity:1" fill="#d8271f" d="M 189.5,385.5 C 208.466,396.111 227.466,406.777 246.5,417.5C 246.833,417.833 247.167,418.167 247.5,418.5C 245.646,422.221 243.313,425.554 240.5,428.5C 222.003,418.086 203.669,407.419 185.5,396.5C 184.417,395.635 184.251,394.635 185,393.5C 186.765,390.968 188.265,388.301 189.5,385.5 Z"/></g>
<g><path style="opacity:1" fill="#70c7ed" d="M 934.5,393.5 C 935.822,393.33 936.989,393.663 938,394.5C 941.385,400.602 944.218,406.935 946.5,413.5C 943.876,420.874 939.042,422.874 932,419.5C 928.248,413.664 924.748,407.664 921.5,401.5C 925.694,398.571 930.027,395.905 934.5,393.5 Z"/></g>
<g><path style="opacity:1" fill="#dd372b" d="M 544.5,408.5 C 549.072,411.563 553.239,415.23 557,419.5C 557.925,422.134 557.091,423.301 554.5,423C 550.667,419.167 546.833,415.333 543,411.5C 542.761,410.212 543.261,409.212 544.5,408.5 Z"/></g>
<g><path style="opacity:1" fill="#da261d" d="M 572.5,496.5 C 570.251,495.92 568.585,494.587 567.5,492.5C 561.031,485.235 556.365,476.901 553.5,467.5C 552.68,461.203 552.347,454.869 552.5,448.5C 556.875,433.422 565.042,420.756 577,410.5C 576.484,416.115 576.484,421.782 577,427.5C 580.722,438.608 584.722,449.608 589,460.5C 589.667,465.167 589.667,469.833 589,474.5C 585.941,483.717 580.441,491.051 572.5,496.5 Z"/></g>
<g><path style="opacity:1" fill="#dc3227" d="M 588.5,410.5 C 591.076,410.722 591.91,412.055 591,414.5C 587.281,418.573 583.447,422.073 579.5,425C 578.483,423.951 578.316,422.784 579,421.5C 582.773,418.236 585.94,414.57 588.5,410.5 Z"/></g>
<g><path style="opacity:1" fill="#3685bd" d="M 608.5,421.5 C 667.5,421.5 726.5,421.5 785.5,421.5C 785.5,449.167 785.5,476.833 785.5,504.5C 726.5,504.5 667.5,504.5 608.5,504.5C 666.998,503.501 725.664,503.168 784.5,503.5C 784.5,476.5 784.5,449.5 784.5,422.5C 725.664,422.832 666.998,422.499 608.5,421.5 Z"/></g>
<g><path style="opacity:1" fill="#d8271e" d="M 178.5,421.5 C 181.85,421.335 185.183,421.502 188.5,422C 189.308,422.308 189.975,422.808 190.5,423.5C 189.235,426.796 188.068,430.129 187,433.5C 175.46,434.117 170.793,440.45 173,452.5C 176.957,456.53 180.623,456.197 184,451.5C 189.167,442.333 196.333,435.167 205.5,430C 226.558,430.579 234.058,441.079 228,461.5C 222.619,477.107 212.119,482.44 196.5,477.5C 197.439,473.682 198.773,470.015 200.5,466.5C 207.933,468.744 213.433,466.411 217,459.5C 218.434,455.594 218.767,451.594 218,447.5C 215.335,442.566 211.502,441.399 206.5,444C 202.286,448.546 198.453,453.379 195,458.5C 184.895,469.979 174.562,470.313 164,459.5C 158.721,442.822 163.554,430.155 178.5,421.5 Z"/></g>
<g><path style="opacity:1" fill="#dd362b" d="M 532.5,432.5 C 537.557,434.526 542.557,436.859 547.5,439.5C 548.823,441.204 548.49,442.537 546.5,443.5C 542.007,441.421 537.674,439.088 533.5,436.5C 532.571,435.311 532.238,433.978 532.5,432.5 Z"/></g>
<g><path style="opacity:1" fill="#dc3328" d="M 602.5,430.5 C 605.076,430.722 605.91,432.055 605,434.5C 601.078,437.211 597.244,440.045 593.5,443C 590.689,445.331 589.189,444.831 589,441.5C 593.846,438.173 598.346,434.507 602.5,430.5 Z"/></g>
<g><path style="opacity:1" fill="#ec8f8b" d="M 595.5,453.5 C 601.979,452.509 608.646,452.176 615.5,452.5C 615.768,454.099 615.434,455.432 614.5,456.5C 614.5,455.5 614.5,454.5 614.5,453.5C 608.167,453.5 601.833,453.5 595.5,453.5 Z"/></g>
<g><path style="opacity:1" fill="#d81e15" d="M 595.5,453.5 C 601.833,453.5 608.167,453.5 614.5,453.5C 614.5,454.5 614.5,455.5 614.5,456.5C 608.167,456.5 601.833,456.5 595.5,456.5C 595.5,455.5 595.5,454.5 595.5,453.5 Z"/></g>
<g><path style="opacity:1" fill="#f2aeaa" d="M 552.5,448.5 C 552.347,454.869 552.68,461.203 553.5,467.5C 551.961,464.135 551.294,460.469 551.5,456.5C 551.503,453.645 551.836,450.978 552.5,448.5 Z"/></g>
<g><path style="opacity:1" fill="#eb8681" d="M 595.5,453.5 C 595.5,454.5 595.5,455.5 595.5,456.5C 601.833,456.5 608.167,456.5 614.5,456.5C 608.021,457.491 601.354,457.824 594.5,457.5C 594.232,455.901 594.566,454.568 595.5,453.5 Z"/></g>
<g><path style="opacity:1" fill="#d92017" d="M 548.5,458.5 C 548.5,459.5 548.5,460.5 548.5,461.5C 541.833,461.5 535.167,461.5 528.5,461.5C 528.5,460.5 528.5,459.5 528.5,458.5C 535.167,458.5 541.833,458.5 548.5,458.5 Z"/></g>
<g><path style="opacity:1" fill="#d8261e" d="M 907.5,460.5 C 911.151,459.835 914.985,459.501 919,459.5C 938.828,460.174 958.662,460.674 978.5,461C 979.232,464.86 980.565,468.527 982.5,472C 982.415,473.107 982.081,474.107 981.5,475C 963.708,489.123 946.208,503.623 929,518.5C 925.845,514.703 924.512,510.37 925,505.5C 929.197,502.299 933.03,498.799 936.5,495C 934.139,487.78 931.639,480.613 929,473.5C 923.425,471.895 917.591,470.895 911.5,470.5C 910.336,466.987 909.002,463.654 907.5,460.5 Z"/></g>
<g><path style="opacity:1" fill="#ea7f79" d="M 548.5,458.5 C 549.434,459.568 549.768,460.901 549.5,462.5C 542.313,462.825 535.313,462.491 528.5,461.5C 535.167,461.5 541.833,461.5 548.5,461.5C 548.5,460.5 548.5,459.5 548.5,458.5 Z"/></g>
<g><path style="opacity:1" fill="#75809b" d="M 940.5,472.5 C 948.676,471.179 957.009,471.179 965.5,472.5C 965.376,473.107 965.043,473.44 964.5,473.5C 956.684,472.508 948.684,472.174 940.5,472.5 Z"/></g>
<g><path style="opacity:1" fill="#6dcbf2" d="M 940.5,472.5 C 948.684,472.174 956.684,472.508 964.5,473.5C 958.089,478.132 951.922,483.132 946,488.5C 943.475,483.426 941.642,478.093 940.5,472.5 Z"/></g>
<g><path style="opacity:1" fill="#dc3429" d="M 595.5,475.5 C 599.807,477.653 604.14,479.82 608.5,482C 611.079,483.612 611.079,485.112 608.5,486.5C 604.167,484.333 599.833,482.167 595.5,480C 594.272,478.51 594.272,477.01 595.5,475.5 Z"/></g>
<g><path style="opacity:1" fill="#dd382c" d="M 549.5,475.5 C 551.832,476.162 552.499,477.495 551.5,479.5C 546.5,482 541.5,484.5 536.5,487C 533.326,487.829 532.326,486.829 533.5,484C 539.053,481.392 544.387,478.559 549.5,475.5 Z"/></g>
<g><path style="opacity:1" fill="#d8281f" d="M 158.5,483.5 C 173.373,482.708 181.373,489.708 182.5,504.5C 192.275,496.802 203.275,492.469 215.5,491.5C 214.24,496.046 212.906,500.546 211.5,505C 202.423,508.137 193.423,511.47 184.5,515C 180.505,518.158 178.505,522.325 178.5,527.5C 186.86,529.139 195.193,530.972 203.5,533C 204.022,533.561 204.355,534.228 204.5,535C 203.639,538.137 202.973,541.303 202.5,544.5C 182.754,540.814 163.088,536.648 143.5,532C 141.22,531.767 139.22,530.934 137.5,529.5C 140.142,518.127 142.975,506.794 146,495.5C 148.44,489.557 152.607,485.557 158.5,483.5 Z"/></g>
<g><path style="opacity:1" fill="#faf107" d="M 590.5,509.5 C 591.498,537.328 591.831,565.328 591.5,593.5C 589.847,593.66 588.514,594.326 587.5,595.5C 582.258,597.717 577.758,601.05 574,605.5C 567.872,598.689 560.372,594.356 551.5,592.5C 551.5,560.5 551.5,528.5 551.5,496.5C 552.962,495.542 554.295,494.376 555.5,493C 557.5,492.333 559.5,492.333 561.5,493C 569.348,496.846 576.681,501.513 583.5,507C 585.743,508.136 588.076,508.97 590.5,509.5 Z"/></g>
<g><path style="opacity:1" fill="#30176e" d="M 567.5,492.5 C 568.585,494.587 570.251,495.92 572.5,496.5C 577.92,500.594 583.587,504.261 589.5,507.5C 589.833,508.167 590.167,508.833 590.5,509.5C 588.076,508.97 585.743,508.136 583.5,507C 576.681,501.513 569.348,496.846 561.5,493C 559.5,492.333 557.5,492.333 555.5,493C 554.295,494.376 552.962,495.542 551.5,496.5C 550.833,528.167 550.167,559.833 549.5,591.5C 549.5,559.5 549.5,527.5 549.5,495.5C 550.673,493.496 552.34,491.996 554.5,491C 559.021,490.15 563.355,490.65 567.5,492.5 Z"/></g>
<g><path style="opacity:1" fill="#84a3c6" d="M 363.5,429.5 C 363.5,451.833 363.5,474.167 363.5,496.5C 421.336,496.168 479.002,496.501 536.5,497.5C 478.5,497.5 420.5,497.5 362.5,497.5C 362.169,474.661 362.503,451.994 363.5,429.5 Z"/></g>
<g><path style="opacity:1" fill="#726ca4" d="M 549.5,495.5 C 549.5,527.5 549.5,559.5 549.5,591.5C 547.833,591.5 546.167,591.5 544.5,591.5C 541.615,591.806 538.948,591.473 536.5,590.5C 540.5,590.5 544.5,590.5 548.5,590.5C 548.168,558.662 548.502,526.996 549.5,495.5 Z"/></g>
<g><path style="opacity:1" fill="#73c6eb" d="M 160.5,496.5 C 165.814,495.74 169.647,497.74 172,502.5C 171.296,509.862 170.129,517.196 168.5,524.5C 162.808,523.628 157.141,522.628 151.5,521.5C 152.184,515.094 153.351,508.761 155,502.5C 156.36,499.977 158.193,497.977 160.5,496.5 Z"/></g>
<g><path style="opacity:1" fill="#97b1cf" d="M 601.5,497.5 C 601.5,528.833 601.5,560.167 601.5,591.5C 600.167,591.5 598.833,591.5 597.5,591.5C 598.209,590.596 599.209,590.263 600.5,590.5C 600.169,559.329 600.502,528.329 601.5,497.5 Z"/></g>
<g><path style="opacity:1" fill="#236dab" d="M 355.5,422.5 C 355.833,422.5 356.167,422.5 356.5,422.5C 356.5,449.5 356.5,476.5 356.5,503.5C 414.336,503.168 472.002,503.501 529.5,504.5C 471.5,504.5 413.5,504.5 355.5,504.5C 355.5,477.167 355.5,449.833 355.5,422.5 Z"/></g>
<g><path style="opacity:1" fill="#b6b0ce" d="M 593.5,507.5 C 594.167,535.5 594.833,563.5 595.5,591.5C 595.44,592.043 595.107,592.376 594.5,592.5C 593.5,564.175 593.167,535.841 593.5,507.5 Z"/></g>
<g><path style="opacity:1" fill="#0e0074" d="M 589.5,507.5 C 590.5,507.5 591.5,507.5 592.5,507.5C 592.831,536.338 592.498,565.005 591.5,593.5C 591.831,565.328 591.498,537.328 590.5,509.5C 590.167,508.833 589.833,508.167 589.5,507.5 Z"/></g>
<g><path style="opacity:1" fill="#d9261e" d="M 988.5,518.5 C 990.833,518.5 993.167,518.5 995.5,518.5C 996.19,522.49 996.357,526.49 996,530.5C 982.833,541 969.667,551.5 956.5,562C 971.156,560.407 985.823,558.574 1000.5,556.5C 1001.27,560.452 1001.61,564.452 1001.5,568.5C 979.788,570.792 958.121,573.459 936.5,576.5C 936.155,572.578 935.488,568.745 934.5,565C 947.684,554.572 960.684,543.906 973.5,533C 959.152,534.419 944.818,536.252 930.5,538.5C 930.605,534.452 930.272,530.452 929.5,526.5C 949.373,524.374 969.04,521.708 988.5,518.5 Z"/></g>
<g><path style="opacity:1" fill="#d8271f" d="M 194.5,556.5 C 196.265,557.461 198.265,557.795 200.5,557.5C 200.5,561.5 200.5,565.5 200.5,569.5C 199.517,573.298 199.183,577.298 199.5,581.5C 198.028,588.951 197.361,596.618 197.5,604.5C 175.625,602.725 153.625,601.059 131.5,599.5C 132.5,584.169 133.5,568.835 134.5,553.5C 138.167,553.5 141.833,553.5 145.5,553.5C 144.527,565.148 143.86,576.814 143.5,588.5C 148.5,588.5 153.5,588.5 158.5,588.5C 159.663,578.204 160.33,567.87 160.5,557.5C 164.154,557.942 167.821,558.276 171.5,558.5C 170.833,569.167 170.167,579.833 169.5,590.5C 175.523,590.502 181.523,590.835 187.5,591.5C 188.225,579.804 189.225,568.138 190.5,556.5C 191.833,556.5 193.167,556.5 194.5,556.5 Z"/></g>
<g><path style="opacity:1" fill="#957c8f" d="M 194.5,556.5 C 196.833,556.5 199.167,556.5 201.5,556.5C 201.818,561.032 201.485,565.366 200.5,569.5C 200.5,565.5 200.5,561.5 200.5,557.5C 198.265,557.795 196.265,557.461 194.5,556.5 Z"/></g>
<g><path style="opacity:1" fill="#d8261e" d="M 937.5,584.5 C 958.946,593.266 980.612,601.766 1002.5,610C 1003.8,614.45 1003.8,618.95 1002.5,623.5C 980.535,631.21 958.702,639.21 937,647.5C 936.172,642.798 936.338,638.131 937.5,633.5C 942.055,631.927 946.555,630.26 951,628.5C 951.475,622.165 951.975,615.831 952.5,609.5C 952.468,607.241 952.134,605.075 951.5,603C 947.306,600.736 942.972,598.903 938.5,597.5C 937.508,593.217 937.174,588.884 937.5,584.5 Z"/></g>
<g><path style="opacity:1" fill="#928397" d="M 199.5,581.5 C 199.429,589.365 198.762,597.031 197.5,604.5C 197.361,596.618 198.028,588.951 199.5,581.5 Z"/></g>
<g><path style="opacity:1" fill="#b0c2da" d="M 534.5,594.5 C 539.363,594.181 544.03,594.514 548.5,595.5C 539.815,595.464 531.149,595.797 522.5,596.5C 526.236,595.011 530.236,594.344 534.5,594.5 Z"/></g>
<g><path style="opacity:1" fill="#6dc5eb" d="M 962.5,607.5 C 970.808,609.713 978.808,612.713 986.5,616.5C 978.696,619.768 970.696,622.435 962.5,624.5C 962.5,618.833 962.5,613.167 962.5,607.5 Z"/></g>
<g><path style="opacity:1" fill="#e67947" d="M 429.5,612.5 C 428.833,614.833 428.167,617.167 427.5,619.5C 426.25,619.577 425.417,620.244 425,621.5C 407.258,675.559 389.425,729.559 371.5,783.5C 371.957,784.298 372.624,784.631 373.5,784.5C 393.502,785.8 413.502,785.8 433.5,784.5C 470.5,784.5 507.5,784.5 544.5,784.5C 546.736,785.389 548.736,786.722 550.5,788.5C 552.186,787.143 553.852,785.81 555.5,784.5C 568.167,784.5 580.833,784.5 593.5,784.5C 595.044,784.703 596.378,785.37 597.5,786.5C 598.518,785.807 599.518,785.141 600.5,784.5C 635.167,784.5 669.833,784.5 704.5,784.5C 717.095,786.19 729.761,786.856 742.5,786.5C 752.815,785.733 763.148,785.399 773.5,785.5C 773.768,783.901 773.434,782.568 772.5,781.5C 761.167,747.5 749.833,713.5 738.5,679.5C 737.121,672.685 734.788,666.351 731.5,660.5C 726.522,644.561 721.522,628.561 716.5,612.5C 719.448,612.223 722.281,612.556 725,613.5C 744.828,672.483 764.328,731.483 783.5,790.5C 719.673,792.166 655.673,793.166 591.5,793.5C 591.167,793.5 590.833,793.5 590.5,793.5C 577.677,792.505 564.677,792.171 551.5,792.5C 550.5,792.5 549.5,792.5 548.5,792.5C 485.833,792.5 423.167,792.5 360.5,792.5C 379.504,732.989 399.004,673.656 419,614.5C 422.149,612.638 425.649,611.971 429.5,612.5 Z"/></g>
<g><path style="opacity:1" fill="#d8261e" d="M 132.5,617.5 C 154.713,623.637 177.046,629.303 199.5,634.5C 199.356,638.375 199.69,642.208 200.5,646C 200.102,647.899 199.102,649.399 197.5,650.5C 177.002,659.222 156.336,667.555 135.5,675.5C 135.2,670.901 135.533,666.401 136.5,662C 152.274,656.273 167.607,649.773 182.5,642.5C 165.903,638.184 149.237,634.184 132.5,630.5C 132.5,626.167 132.5,621.833 132.5,617.5 Z"/></g>
<g><path style="opacity:1" fill="#d8261e" d="M 990.5,653.5 C 994.215,653.423 997.881,653.756 1001.5,654.5C 998.955,670.48 996.455,686.48 994,702.5C 990.667,703.833 987.333,703.833 984,702.5C 984.273,696.178 984.773,689.845 985.5,683.5C 967.567,680.4 949.567,677.733 931.5,675.5C 931.875,671.129 932.541,666.796 933.5,662.5C 951.721,665.926 970.054,668.592 988.5,670.5C 989.058,664.82 989.725,659.153 990.5,653.5 Z"/></g>
<g><path style="opacity:1" fill="#b6b2c2" d="M 731.5,660.5 C 734.788,666.351 737.121,672.685 738.5,679.5C 738.5,680.833 738.5,682.167 738.5,683.5C 735.585,676.083 733.252,668.416 731.5,660.5 Z"/></g>
<g><path style="opacity:1" fill="#d72b22" d="M 201.5,677.5 C 202.5,677.5 203.5,677.5 204.5,677.5C 205.036,680.846 205.703,684.18 206.5,687.5C 206.182,688.647 205.516,689.481 204.5,690C 184.27,693.811 164.27,698.311 144.5,703.5C 143.353,703.182 142.519,702.516 142,701.5C 141.005,697.855 140.172,694.188 139.5,690.5C 160.39,686.656 181.056,682.323 201.5,677.5 Z"/></g>
<g><path style="opacity:1" fill="#d8261e" d="M 924.5,702.5 C 946.251,708.762 967.584,715.929 988.5,724C 987.458,727.627 986.125,731.127 984.5,734.5C 976.437,732.035 968.437,729.368 960.5,726.5C 957.05,733.85 954.383,741.516 952.5,749.5C 952.818,750.647 953.484,751.481 954.5,752C 961.876,754.403 969.209,756.903 976.5,759.5C 975.235,762.796 974.068,766.129 973,769.5C 972.439,770.022 971.772,770.355 971,770.5C 950.319,764.051 929.819,757.218 909.5,750C 911.208,746.707 912.208,743.207 912.5,739.5C 922.145,742.331 931.812,744.831 941.5,747C 943.966,739.269 946.633,731.603 949.5,724C 940.711,720.347 931.711,717.181 922.5,714.5C 922.167,714 921.833,713.5 921.5,713C 922.811,709.569 923.811,706.069 924.5,702.5 Z"/></g>
<g><path style="opacity:1" fill="#d8271e" d="M 207.5,703.5 C 208.5,703.5 209.5,703.5 210.5,703.5C 211.877,707.778 212.711,712.112 213,716.5C 201.612,728.052 190.778,740.052 180.5,752.5C 193.635,749.622 206.635,745.622 219.5,740.5C 220.442,740.608 221.275,740.941 222,741.5C 223.015,744.558 224.181,747.558 225.5,750.5C 204.618,757.683 183.618,764.683 162.5,771.5C 160.794,767.56 159.627,763.56 159,759.5C 169.479,746.72 180.312,734.22 191.5,722C 177.776,725.627 164.109,729.794 150.5,734.5C 148.688,731.571 147.354,728.405 146.5,725C 146.905,724.055 147.572,723.388 148.5,723C 168.374,716.764 188.041,710.264 207.5,703.5 Z"/></g>
<g><path style="opacity:1" fill="#668aba" d="M 395.5,716.5 C 394.943,721.165 393.61,725.498 391.5,729.5C 392.057,724.835 393.39,720.502 395.5,716.5 Z"/></g>
<g><path style="opacity:1" fill="#f1e8e4" d="M 427.5,619.5 C 416.833,651.833 406.167,684.167 395.5,716.5C 393.39,720.502 392.057,724.835 391.5,729.5C 384.726,747.489 378.726,765.822 373.5,784.5C 372.624,784.631 371.957,784.298 371.5,783.5C 389.425,729.559 407.258,675.559 425,621.5C 425.417,620.244 426.25,619.577 427.5,619.5 Z"/></g>
<g><path style="opacity:1" fill="#f5edeb" d="M 738.5,679.5 C 749.833,713.5 761.167,747.5 772.5,781.5C 772.5,782.5 772.5,783.5 772.5,784.5C 767.5,784.5 762.5,784.5 757.5,784.5C 761.453,783.332 765.119,781.498 768.5,779C 758.71,746.978 748.71,715.144 738.5,683.5C 738.5,682.167 738.5,680.833 738.5,679.5 Z"/></g>
<g><path style="opacity:1" fill="#d8261e" d="M 905.5,757.5 C 922.316,773.397 938.482,790.064 954,807.5C 953.404,811.718 951.904,815.718 949.5,819.5C 948.833,819.833 948.167,820.167 947.5,820.5C 924.553,817.905 901.553,815.905 878.5,814.5C 879.469,810.392 881.136,806.559 883.5,803C 889.416,803.018 895.249,802.852 901,802.5C 904.227,795.045 907.727,787.712 911.5,780.5C 907.833,776.5 904.167,772.5 900.5,768.5C 902.453,764.931 904.119,761.264 905.5,757.5 Z"/></g>
<g><path style="opacity:1" fill="#214c91" d="M 551.5,496.5 C 551.5,528.5 551.5,560.5 551.5,592.5C 560.372,594.356 567.872,598.689 574,605.5C 577.758,601.05 582.258,597.717 587.5,595.5C 587.279,596.735 586.612,597.735 585.5,598.5C 585.624,599.107 585.957,599.44 586.5,599.5C 583.312,601.932 580.312,604.599 577.5,607.5C 576.335,658.665 576.168,709.998 577,761.5C 577.717,760.956 578.217,760.289 578.5,759.5C 602.242,734.423 630.909,726.257 664.5,735C 679.266,738.811 693.599,743.811 707.5,750C 715.597,752.866 723.93,754.033 732.5,753.5C 718.988,706.794 705.154,660.127 691,613.5C 682.742,612.783 674.575,611.283 666.5,609C 652.001,604.633 637.668,600.133 623.5,595.5C 625.869,595.851 628.203,596.018 630.5,596C 629.584,595.722 628.918,595.222 628.5,594.5C 634.185,595.504 639.852,596.671 645.5,598C 668.333,607.463 692,612.296 716.5,612.5C 721.522,628.561 726.522,644.561 731.5,660.5C 733.252,668.416 735.585,676.083 738.5,683.5C 748.71,715.144 758.71,746.978 768.5,779C 765.119,781.498 761.453,783.332 757.5,784.5C 752.269,784.444 747.269,785.111 742.5,786.5C 729.761,786.856 717.095,786.19 704.5,784.5C 682.468,778.632 659.968,774.632 637,772.5C 623.18,771.829 611.013,775.829 600.5,784.5C 599.518,785.141 598.518,785.807 597.5,786.5C 596.378,785.37 595.044,784.703 593.5,784.5C 587.46,778.967 580.96,773.967 574,769.5C 567.656,774.35 561.489,779.35 555.5,784.5C 553.852,785.81 552.186,787.143 550.5,788.5C 548.736,786.722 546.736,785.389 544.5,784.5C 540.511,780.704 535.845,777.871 530.5,776C 519.702,772.835 508.702,771.835 497.5,773C 476.088,777.196 454.755,781.029 433.5,784.5C 413.502,785.8 393.502,785.8 373.5,784.5C 378.726,765.822 384.726,747.489 391.5,729.5C 393.61,725.498 394.943,721.165 395.5,716.5C 406.167,684.167 416.833,651.833 427.5,619.5C 428.167,617.167 428.833,614.833 429.5,612.5C 441.581,612.796 453.581,611.963 465.5,610C 483.005,605.67 500.338,600.837 517.5,595.5C 518.919,596.451 520.585,596.784 522.5,596.5C 511.399,599.254 500.399,602.754 489.5,607C 479.248,609.949 468.914,612.449 458.5,614.5C 455.596,622.546 452.929,630.546 450.5,638.5C 448.057,643.5 446.39,648.834 445.5,654.5C 434.87,687.392 424.204,720.392 413.5,753.5C 422.999,754.197 432.332,753.031 441.5,750C 456.675,743.553 472.342,738.386 488.5,734.5C 479.571,737.534 470.571,740.7 461.5,744C 462.094,744.464 462.761,744.631 463.5,744.5C 446.855,752.595 429.188,756.595 410.5,756.5C 420.896,721.562 431.896,686.895 443.5,652.5C 445.943,647.5 447.61,642.166 448.5,636.5C 450.594,629.55 452.928,622.55 455.5,615.5C 453.994,614.253 452.494,614.253 451,615.5C 435.064,664.475 419.231,713.475 403.5,762.5C 414.563,763.774 425.563,763.274 436.5,761C 453.913,756.98 471.246,752.647 488.5,748C 518.337,741.735 542.837,750.235 562,773.5C 563.487,772.845 564.653,771.845 565.5,770.5C 546.823,747.671 522.823,738.504 493.5,743C 475.516,747.996 457.516,752.996 439.5,758C 428.883,759.921 418.217,761.421 407.5,762.5C 407.5,761.5 407.5,760.5 407.5,759.5C 415.537,759.057 423.537,758.224 431.5,757C 452.941,751.516 474.275,745.849 495.5,740C 514.699,736.794 532.366,740.461 548.5,751C 555.596,756.092 562.096,761.926 568,768.5C 569.255,767.789 570.421,766.956 571.5,766C 557.445,749.98 540.111,739.647 519.5,735C 513.843,734.501 508.176,734.334 502.5,734.5C 506.982,733.674 511.649,733.174 516.5,733C 507.436,732.371 498.436,732.871 489.5,734.5C 495.13,732.103 501.13,731.103 507.5,731.5C 532.762,732.713 553.928,742.713 571,761.5C 571.667,710.167 571.667,658.833 571,607.5C 564.849,601.007 557.349,597.007 548.5,595.5C 544.03,594.514 539.363,594.181 534.5,594.5C 537.977,593.677 541.644,593.177 545.5,593C 544.944,592.617 544.611,592.117 544.5,591.5C 546.167,591.5 547.833,591.5 549.5,591.5C 550.167,559.833 550.833,528.167 551.5,496.5 Z"/></g>
<g><path style="opacity:1" fill="#eaeff5" d="M 442.5,615.5 C 443.978,615.238 445.311,615.571 446.5,616.5C 428.12,668.571 409.786,720.571 391.5,772.5C 422.99,771.474 453.99,766.974 484.5,759C 507.366,753.256 528.7,756.59 548.5,769C 551.312,771.901 554.312,774.568 557.5,777C 556.407,778.365 555.074,778.699 553.5,778C 539.946,765.648 523.946,760.148 505.5,761.5C 498.46,761.501 491.46,762.001 484.5,763C 463.941,767.312 443.275,770.979 422.5,774C 411.172,774.5 399.838,774.667 388.5,774.5C 406.165,721.478 424.165,668.478 442.5,615.5 Z"/></g>
<g><path style="opacity:1" fill="#eaeff5" d="M 702.5,615.5 C 704.144,615.286 705.644,615.62 707,616.5C 707.667,618.5 708.333,620.5 709,622.5C 724.501,672.496 739.668,722.496 754.5,772.5C 743.459,776.187 732.126,777.354 720.5,776C 703.289,772.894 686.289,768.894 669.5,764C 659.225,761.985 648.892,760.485 638.5,759.5C 621.274,759.738 606.607,765.904 594.5,778C 593.035,778.601 592.035,778.101 591.5,776.5C 610.102,757.761 632.435,751.261 658.5,757C 679.784,762.206 701.118,767.206 722.5,772C 732.328,773.213 741.828,772.047 751,768.5C 734.961,717.546 718.794,666.546 702.5,615.5 Z"/></g>
<g><path style="opacity:1" fill="#eaeff5" d="M 744.5,764.5 C 745.222,764.082 745.722,763.416 746,762.5C 746.608,764.154 747.108,765.821 747.5,767.5C 736.582,769.897 725.582,770.063 714.5,768C 700.426,764.648 686.426,760.981 672.5,757C 662.099,754.752 651.599,753.252 641,752.5C 620.563,752.362 603.396,759.696 589.5,774.5C 588.479,773.998 588.312,773.332 589,772.5C 607.823,751.896 630.989,744.729 658.5,751C 679.507,756.003 700.507,761.003 721.5,766C 729.306,766.974 736.973,766.474 744.5,764.5 Z"/></g>
<g><path style="opacity:1" fill="#e3e9f2" d="M 423.5,688.5 C 423.833,688.5 424.167,688.5 424.5,688.5C 416.154,714.537 407.82,740.537 399.5,766.5C 408.879,766.776 418.212,766.276 427.5,765C 449.927,760.413 472.26,755.413 494.5,750C 520.421,745.971 541.921,753.805 559,773.5C 559.667,774.167 559.667,774.833 559,775.5C 540.304,756.858 517.804,750.025 491.5,755C 473.894,758.921 456.227,762.588 438.5,766C 424.26,768.357 409.926,769.524 395.5,769.5C 404.973,742.637 414.307,715.637 423.5,688.5 Z"/></g>
<g><path style="opacity:1" fill="#b9cadf" d="M 577.5,607.5 C 577.168,658.336 577.501,709.003 578.5,759.5C 578.217,760.289 577.717,760.956 577,761.5C 576.168,709.998 576.335,658.665 577.5,607.5 Z"/></g>
<g><path style="opacity:1" fill="#e5ebf3" d="M 448.5,636.5 C 446.057,641.5 444.39,646.834 443.5,652.5C 431.896,686.895 420.896,721.562 410.5,756.5C 429.188,756.595 446.855,752.595 463.5,744.5C 475.953,739.137 488.953,735.803 502.5,734.5C 508.176,734.334 513.843,734.501 519.5,735C 540.111,739.647 557.445,749.98 571.5,766C 570.421,766.956 569.255,767.789 568,768.5C 562.096,761.926 555.596,756.092 548.5,751C 532.366,740.461 514.699,736.794 495.5,740C 474.275,745.849 452.941,751.516 431.5,757C 423.537,758.224 415.537,759.057 407.5,759.5C 407.5,760.5 407.5,761.5 407.5,762.5C 418.217,761.421 428.883,759.921 439.5,758C 457.516,752.996 475.516,747.996 493.5,743C 522.823,738.504 546.823,747.671 565.5,770.5C 564.653,771.845 563.487,772.845 562,773.5C 542.837,750.235 518.337,741.735 488.5,748C 471.246,752.647 453.913,756.98 436.5,761C 425.563,763.274 414.563,763.774 403.5,762.5C 419.231,713.475 435.064,664.475 451,615.5C 452.494,614.253 453.994,614.253 455.5,615.5C 452.928,622.55 450.594,629.55 448.5,636.5 Z"/></g>
<g><path style="opacity:1" fill="#b6c7dd" d="M 747.5,767.5 C 747.108,765.821 746.608,764.154 746,762.5C 745.722,763.416 745.222,764.082 744.5,764.5C 735.225,732.161 725.392,699.828 715,667.5C 714.333,666.167 714.333,664.833 715,663.5C 725.766,697.797 736.932,731.964 748.5,766C 748.43,766.765 748.097,767.265 747.5,767.5 Z"/></g>
<g><path style="opacity:1" fill="#6e90bb" d="M 424.5,688.5 C 424.167,688.5 423.833,688.5 423.5,688.5C 425.893,681.49 428.393,674.49 431,667.5C 429.733,674.798 427.567,681.798 424.5,688.5 Z"/></g>
<g><path style="opacity:1" fill="#e2e8f1" d="M 694.5,614.5 C 695.496,614.414 696.329,614.748 697,615.5C 711.453,664.155 726.287,712.655 741.5,761C 741.167,761.5 740.833,762 740.5,762.5C 733.217,763.632 725.883,763.799 718.5,763C 699.543,758.125 680.543,753.458 661.5,749C 631.094,741.092 605.76,748.925 585.5,772.5C 584.354,771.855 583.354,771.022 582.5,770C 601.855,745.768 626.855,737.101 657.5,744C 678.383,749.471 699.383,754.804 720.5,760C 725.833,760.667 731.167,760.667 736.5,760C 736.957,759.586 737.291,759.086 737.5,758.5C 729.492,757.725 721.492,756.892 713.5,756C 694.762,750.983 676.096,745.983 657.5,741C 631.712,735.147 609.046,740.814 589.5,758C 586.145,761.221 583.145,764.721 580.5,768.5C 578.77,767.974 577.436,766.974 576.5,765.5C 590.086,749.704 607.086,739.537 627.5,735C 642.493,733.761 657.16,735.427 671.5,740C 688.012,746.725 705.012,752.059 722.5,756C 726.821,756.499 731.154,756.666 735.5,756.5C 722.259,709.103 708.592,661.769 694.5,614.5 Z"/></g>
<g><path style="opacity:1" fill="#89a4c8" d="M 450.5,638.5 C 449.61,644.166 447.943,649.5 445.5,654.5C 446.39,648.834 448.057,643.5 450.5,638.5 Z"/></g>
<g><path style="opacity:1" fill="#6183b4" d="M 448.5,636.5 C 447.61,642.166 445.943,647.5 443.5,652.5C 444.39,646.834 446.057,641.5 448.5,636.5 Z"/></g>
<g><path style="opacity:1" fill="#eaeff5" d="M 709.5,615.5 C 710.833,615.5 712.167,615.5 713.5,615.5C 730.939,669.585 747.605,723.919 763.5,778.5C 748.693,782.021 733.693,783.188 718.5,782C 697.182,778.008 675.849,774.008 654.5,770C 633.596,765.08 614.596,768.914 597.5,781.5C 597.167,781.167 596.833,780.833 596.5,780.5C 607.521,768.209 621.355,762.209 638,762.5C 647.612,762.73 657.112,763.897 666.5,766C 682.815,770.162 699.148,774.162 715.5,778C 724.167,778.667 732.833,778.667 741.5,778C 746.894,777.194 752.06,775.694 757,773.5C 755.647,765.422 753.647,757.422 751,749.5C 736.855,704.919 723.022,660.253 709.5,615.5 Z"/></g>
<g><path style="opacity:1" fill="#eef2f7" d="M 432.5,615.5 C 434.924,615.192 437.257,615.526 439.5,616.5C 420.927,669.916 402.761,723.249 385,776.5C 399.786,777.791 414.619,777.624 429.5,776C 447.198,772.794 464.865,769.46 482.5,766C 499.713,762.049 516.713,762.716 533.5,768C 540.804,770.825 547.138,774.992 552.5,780.5C 552.167,781.5 551.5,782.167 550.5,782.5C 532.34,769.834 512.34,765.667 490.5,770C 454.059,779.698 417.059,783.198 379.5,780.5C 379.34,778.801 379.506,777.134 380,775.5C 398.41,722.436 415.91,669.102 432.5,615.5 Z"/></g>
<g><path style="opacity:1" fill="#fafbfd" d="M 623.5,595.5 C 637.668,600.133 652.001,604.633 666.5,609C 674.575,611.283 682.742,612.783 691,613.5C 705.154,660.127 718.988,706.794 732.5,753.5C 723.93,754.033 715.597,752.866 707.5,750C 693.599,743.811 679.266,738.811 664.5,735C 630.909,726.257 602.242,734.423 578.5,759.5C 577.501,709.003 577.168,658.336 577.5,607.5C 580.312,604.599 583.312,601.932 586.5,599.5C 589.936,597.519 593.603,596.019 597.5,595C 606.189,594.327 614.856,594.493 623.5,595.5 Z"/></g>
<g><path style="opacity:1" fill="#1d4b91" d="M 612.5,709.5 C 622.506,709.334 632.506,709.5 642.5,710C 662.911,714.687 683.244,719.52 703.5,724.5C 703.5,725.5 703.5,726.5 703.5,727.5C 700.482,727.665 697.482,727.498 694.5,727C 679.005,722.367 663.338,718.367 647.5,715C 635.865,713.565 624.199,713.232 612.5,714C 604.088,716.122 596.588,719.956 590,725.5C 588.978,724.646 588.145,723.646 587.5,722.5C 594.93,716.286 603.264,711.953 612.5,709.5 Z"/></g>
<g><path style="opacity:1" fill="#234c92" d="M 626.5,692.5 C 618.344,691.343 610.01,691.177 601.5,692C 600.584,692.278 599.918,692.778 599.5,693.5C 594.713,693.893 590.713,695.893 587.5,699.5C 586.585,698.672 585.919,697.672 585.5,696.5C 589.792,691.852 595.126,689.019 601.5,688C 630.557,687.344 658.89,691.344 686.5,700C 690.486,700.499 694.486,700.666 698.5,700.5C 698.5,701.833 698.5,703.167 698.5,704.5C 682.568,703.248 666.902,700.415 651.5,696C 643.223,694.377 634.89,693.211 626.5,692.5 Z"/></g>
<g><path style="opacity:1" fill="#a4bad5" d="M 626.5,692.5 C 617.467,692.284 608.467,692.617 599.5,693.5C 599.918,692.778 600.584,692.278 601.5,692C 610.01,691.177 618.344,691.343 626.5,692.5 Z"/></g>
<g><path style="opacity:1" fill="#1a4a90" d="M 597.5,662.5 C 603.176,662.334 608.843,662.501 614.5,663C 637.045,667.886 659.378,673.553 681.5,680C 684.146,680.497 686.813,680.664 689.5,680.5C 689.5,681.833 689.5,683.167 689.5,684.5C 686.482,684.665 683.482,684.498 680.5,684C 658.373,677.513 636.04,671.846 613.5,667C 605.8,665.666 598.467,666.666 591.5,670C 589.972,673.096 588.306,673.096 586.5,670C 589.544,666.486 593.21,663.986 597.5,662.5 Z"/></g>
<g><path style="opacity:1" fill="#274e93" d="M 618.5,641.5 C 626.276,642.385 633.943,643.885 641.5,646C 653.616,651.362 666.282,654.529 679.5,655.5C 679.5,656.833 679.5,658.167 679.5,659.5C 676.482,659.665 673.482,659.498 670.5,659C 653.171,654.335 635.838,649.669 618.5,645C 616.19,644.503 613.857,644.337 611.5,644.5C 607.354,643.353 603.02,643.186 598.5,644C 596.68,644.2 595.347,645.034 594.5,646.5C 592.539,648.312 590.206,649.312 587.5,649.5C 588.464,645.203 591.13,642.536 595.5,641.5C 603.158,640.268 610.825,640.268 618.5,641.5 Z"/></g>
<g><path style="opacity:1" fill="#8ba7c9" d="M 611.5,644.5 C 605.677,644.123 600.011,644.79 594.5,646.5C 595.347,645.034 596.68,644.2 598.5,644C 603.02,643.186 607.354,643.353 611.5,644.5 Z"/></g>
<g><path style="opacity:1" fill="#668ab8" d="M 618.5,641.5 C 610.825,640.268 603.158,640.268 595.5,641.5C 599.034,639.952 602.867,639.286 607,639.5C 611.133,639.286 614.966,639.952 618.5,641.5 Z"/></g>
<g><path style="opacity:1" fill="#1a4a90" d="M 597.5,615.5 C 604.874,615.384 612.208,615.884 619.5,617C 637.011,622.561 654.677,627.395 672.5,631.5C 672.5,632.5 672.5,633.5 672.5,634.5C 666.722,634.473 661.056,633.64 655.5,632C 641.446,626.982 627.113,622.982 612.5,620C 604.066,617.941 596.733,619.774 590.5,625.5C 588.61,625.131 587.776,624.131 588,622.5C 590.79,619.535 593.957,617.202 597.5,615.5 Z"/></g>
<g><path style="opacity:1" fill="#fbfbfd" d="M 548.5,595.5 C 557.349,597.007 564.849,601.007 571,607.5C 571.667,658.833 571.667,710.167 571,761.5C 553.928,742.713 532.762,732.713 507.5,731.5C 501.13,731.103 495.13,732.103 489.5,734.5C 489.167,734.5 488.833,734.5 488.5,734.5C 472.342,738.386 456.675,743.553 441.5,750C 432.332,753.031 422.999,754.197 413.5,753.5C 424.204,720.392 434.87,687.392 445.5,654.5C 447.943,649.5 449.61,644.166 450.5,638.5C 452.929,630.546 455.596,622.546 458.5,614.5C 468.914,612.449 479.248,609.949 489.5,607C 500.399,602.754 511.399,599.254 522.5,596.5C 531.149,595.797 539.815,595.464 548.5,595.5 Z"/></g>
<g><path style="opacity:1" fill="#053583" d="M 502.5,734.5 C 488.953,735.803 475.953,739.137 463.5,744.5C 462.761,744.631 462.094,744.464 461.5,744C 470.571,740.7 479.571,737.534 488.5,734.5C 488.833,734.5 489.167,734.5 489.5,734.5C 498.436,732.871 507.436,732.371 516.5,733C 511.649,733.174 506.982,733.674 502.5,734.5 Z"/></g>
<g><path style="opacity:1" fill="#1c4a90" d="M 505.5,710.5 C 524.83,707.667 542.83,711.167 559.5,721C 563.361,722.981 563.361,724.814 559.5,726.5C 547.509,717.017 533.842,713.017 518.5,714.5C 512.12,714.489 505.787,714.989 499.5,716C 484.384,719.196 469.384,722.862 454.5,727C 450.56,728.015 446.56,728.515 442.5,728.5C 442.5,727.167 442.5,725.833 442.5,724.5C 446.56,724.515 450.56,724.015 454.5,723C 471.557,718.495 488.557,714.328 505.5,710.5 Z"/></g>
<g><path style="opacity:1" fill="#7294bd" d="M 453.5,701.5 C 452.081,702.451 450.415,702.784 448.5,702.5C 448.5,703.5 448.5,704.5 448.5,705.5C 450.167,705.5 451.833,705.5 453.5,705.5C 451.735,706.461 449.735,706.795 447.5,706.5C 447.5,704.833 447.5,703.167 447.5,701.5C 449.5,701.5 451.5,701.5 453.5,701.5 Z"/></g>
<g><path style="opacity:1" fill="#244d92" d="M 493.5,697.5 C 480.289,700.592 466.955,703.259 453.5,705.5C 451.833,705.5 450.167,705.5 448.5,705.5C 448.5,704.5 448.5,703.5 448.5,702.5C 450.415,702.784 452.081,702.451 453.5,701.5C 466.833,698.833 480.167,696.167 493.5,693.5C 497.225,693.405 500.891,693.238 504.5,693C 504.002,694.158 503.169,694.991 502,695.5C 499.004,696.035 496.171,696.702 493.5,697.5 Z"/></g>
<g><path style="opacity:1" fill="#5e7caf" d="M 518.5,689.5 C 513.35,690.319 509.017,691.819 505.5,694C 509.805,693.923 514.138,693.756 518.5,693.5C 510.342,695.232 502.008,696.565 493.5,697.5C 496.171,696.702 499.004,696.035 502,695.5C 503.169,694.991 504.002,694.158 504.5,693C 500.891,693.238 497.225,693.405 493.5,693.5C 501.551,691.215 509.884,689.881 518.5,689.5 Z"/></g>
<g><path style="opacity:1" fill="#1a468e" d="M 518.5,693.5 C 514.138,693.756 509.805,693.923 505.5,694C 509.017,691.819 513.35,690.319 518.5,689.5C 531.298,687.717 543.965,688.55 556.5,692C 559.341,693.586 562.007,695.42 564.5,697.5C 563.855,698.646 563.022,699.646 562,700.5C 557.257,697.305 552.09,694.971 546.5,693.5C 537.107,692.196 527.774,692.196 518.5,693.5 Z"/></g>
<g><path style="opacity:1" fill="#1a4a90" d="M 533.5,663.5 C 541.337,662.968 549.003,663.801 556.5,666C 559.362,666.93 561.695,668.597 563.5,671C 561.311,673.947 559.311,673.947 557.5,671C 549.827,667.685 541.827,666.685 533.5,668C 510.32,672.878 487.32,678.545 464.5,685C 461.854,685.497 459.187,685.664 456.5,685.5C 456.5,684.167 456.5,682.833 456.5,681.5C 460.897,681.575 465.23,681.075 469.5,680C 490.723,673.529 512.056,668.029 533.5,663.5 Z"/></g>
<g><path style="opacity:1" fill="#1e488f" d="M 547.5,641.5 C 553.553,641.548 558.553,643.881 562.5,648.5C 561.855,649.646 561.022,650.646 560,651.5C 557.01,648.589 553.51,646.589 549.5,645.5C 546.854,644.836 544.021,644.502 541,644.5C 536.242,644.366 531.742,645.032 527.5,646.5C 511.509,650.306 495.509,654.472 479.5,659C 475.56,660.015 471.56,660.515 467.5,660.5C 467.5,659.5 467.5,658.5 467.5,657.5C 487.533,652.475 507.533,647.475 527.5,642.5C 534.153,641.946 540.82,641.612 547.5,641.5 Z"/></g>
<g><path style="opacity:1" fill="#7e9cc3" d="M 549.5,645.5 C 542.151,645.549 534.817,645.882 527.5,646.5C 531.742,645.032 536.242,644.366 541,644.5C 544.021,644.502 546.854,644.836 549.5,645.5 Z"/></g>
<g><path style="opacity:1" fill="#7898c0" d="M 547.5,641.5 C 540.82,641.612 534.153,641.946 527.5,642.5C 531.406,641.06 535.573,640.394 540,640.5C 542.69,640.503 545.19,640.836 547.5,641.5 Z"/></g>
<g><path style="opacity:1" fill="#1b4a90" d="M 533.5,616.5 C 543.533,615.018 552.7,617.018 561,622.5C 561.551,624.353 560.885,625.687 559,626.5C 556.374,623.769 553.207,621.936 549.5,621C 544.167,620.333 538.833,620.333 533.5,621C 518.02,624.714 502.686,629.048 487.5,634C 482.878,635.156 478.211,635.99 473.5,636.5C 473.5,635.167 473.5,633.833 473.5,632.5C 480.588,631.479 487.588,629.979 494.5,628C 507.476,623.614 520.476,619.781 533.5,616.5 Z"/></g>
<g><path style="opacity:1" fill="#d8261e" d="M 220.5,769.5 C 228.039,769.02 234.205,771.687 239,777.5C 246.698,787.311 248.364,797.977 244,809.5C 241.463,812.372 238.63,814.872 235.5,817C 221.862,824.492 207.862,830.825 193.5,836C 191.706,832.912 190.039,829.746 188.5,826.5C 202.833,819.333 217.167,812.167 231.5,805C 236.387,796.544 235.054,789.211 227.5,783C 224.833,782.333 222.167,782.333 219.5,783C 205.101,789.033 191.101,795.866 177.5,803.5C 175.101,799.727 173.601,795.727 173,791.5C 188.619,783.437 204.452,776.103 220.5,769.5 Z"/></g>
<g><path style="opacity:1" fill="#f8fafc" d="M 593.5,784.5 C 580.833,784.5 568.167,784.5 555.5,784.5C 561.489,779.35 567.656,774.35 574,769.5C 580.96,773.967 587.46,778.967 593.5,784.5 Z"/></g>
<g><path style="opacity:1" fill="#f6f8fb" d="M 544.5,784.5 C 507.5,784.5 470.5,784.5 433.5,784.5C 454.755,781.029 476.088,777.196 497.5,773C 508.702,771.835 519.702,772.835 530.5,776C 535.845,777.871 540.511,780.704 544.5,784.5 Z"/></g>
<g><path style="opacity:1" fill="#f7f9fb" d="M 704.5,784.5 C 669.833,784.5 635.167,784.5 600.5,784.5C 611.013,775.829 623.18,771.829 637,772.5C 659.968,774.632 682.468,778.632 704.5,784.5 Z"/></g>
<g><path style="opacity:1" fill="#da9275" d="M 772.5,781.5 C 773.434,782.568 773.768,783.901 773.5,785.5C 763.148,785.399 752.815,785.733 742.5,786.5C 747.269,785.111 752.269,784.444 757.5,784.5C 762.5,784.5 767.5,784.5 772.5,784.5C 772.5,783.5 772.5,782.5 772.5,781.5 Z"/></g>
<g><path style="opacity:1" fill="#a6a3a5" d="M 783.5,790.5 C 784.404,791.209 784.737,792.209 784.5,793.5C 725.833,793.5 667.167,793.5 608.5,793.5C 606.167,793.5 603.833,793.5 601.5,793.5C 601.5,804.167 601.5,814.833 601.5,825.5C 600.5,825.167 599.833,824.5 599.5,823.5C 600.494,813.681 600.827,803.681 600.5,793.5C 598.5,793.5 596.5,793.5 594.5,793.5C 594.5,802.833 594.5,812.167 594.5,821.5C 594.167,821.5 593.833,821.5 593.5,821.5C 594.139,811.773 593.472,802.44 591.5,793.5C 655.673,793.166 719.673,792.166 783.5,790.5 Z"/></g>
<g><path style="opacity:1" fill="#71c4ea" d="M 919.5,788.5 C 925.965,794.464 932.298,800.631 938.5,807C 930.092,807.01 921.759,806.177 913.5,804.5C 912.417,803.635 912.251,802.635 913,801.5C 915.18,797.14 917.347,792.807 919.5,788.5 Z"/></g>
<g><path style="opacity:1" fill="#f6f5f6" d="M 548.5,793.5 C 548.5,802.833 548.5,812.167 548.5,821.5C 546.62,821.229 545.287,821.896 544.5,823.5C 541.57,825.847 540.237,829.014 540.5,833C 540.544,836.57 541.044,840.07 542,843.5C 542.2,845.32 543.034,846.653 544.5,847.5C 545.73,855.113 546.397,862.78 546.5,870.5C 545.433,878.034 542.433,884.701 537.5,890.5C 537.5,858.167 537.5,825.833 537.5,793.5C 541.167,793.5 544.833,793.5 548.5,793.5 Z"/></g>
<g><path style="opacity:1" fill="#fefefe" d="M 599.5,823.5 C 598.833,823.167 598.167,822.833 597.5,822.5C 596.791,821.596 595.791,821.263 594.5,821.5C 594.5,812.167 594.5,802.833 594.5,793.5C 596.5,793.5 598.5,793.5 600.5,793.5C 600.827,803.681 600.494,813.681 599.5,823.5 Z"/></g>
<g><path style="opacity:1" fill="#04428b" d="M 529.5,793.5 C 531.833,793.5 534.167,793.5 536.5,793.5C 536.168,826.338 536.502,859.004 537.5,891.5C 535.833,895.167 533.167,897.833 529.5,899.5C 529.5,864.167 529.5,828.833 529.5,793.5 Z"/></g>
<g><path style="opacity:1" fill="#afb7c2" d="M 360.5,792.5 C 423.167,792.5 485.833,792.5 548.5,792.5C 548.5,792.833 548.5,793.167 548.5,793.5C 544.833,793.5 541.167,793.5 537.5,793.5C 537.5,825.833 537.5,858.167 537.5,890.5C 537.5,890.833 537.5,891.167 537.5,891.5C 536.502,859.004 536.168,826.338 536.5,793.5C 534.167,793.5 531.833,793.5 529.5,793.5C 472.998,793.832 416.664,793.499 360.5,792.5 Z"/></g>
<g><path style="opacity:1" fill="#553e6d" d="M 548.5,792.5 C 549.5,792.5 550.5,792.5 551.5,792.5C 551.5,802.167 551.5,811.833 551.5,821.5C 550.5,821.5 549.5,821.5 548.5,821.5C 548.5,812.167 548.5,802.833 548.5,793.5C 548.5,793.167 548.5,792.833 548.5,792.5 Z"/></g>
<g><path style="opacity:1" fill="#fcf102" d="M 551.5,792.5 C 564.677,792.171 577.677,792.505 590.5,793.5C 590.5,802.833 590.5,812.167 590.5,821.5C 577.5,821.5 564.5,821.5 551.5,821.5C 551.5,811.833 551.5,802.167 551.5,792.5 Z"/></g>
<g><path style="opacity:1" fill="#311f7a" d="M 591.5,793.5 C 593.472,802.44 594.139,811.773 593.5,821.5C 591.528,812.56 590.861,803.227 591.5,793.5 Z"/></g>
<g><path style="opacity:1" fill="#064189" d="M 608.5,793.5 C 608.5,828.5 608.5,863.5 608.5,898.5C 605.395,895.725 603.062,892.392 601.5,888.5C 601.83,872.991 601.496,857.658 600.5,842.5C 601.354,836.879 601.687,831.212 601.5,825.5C 601.5,814.833 601.5,804.167 601.5,793.5C 603.833,793.5 606.167,793.5 608.5,793.5 Z"/></g>
<g><path style="opacity:1" fill="#d7271f" d="M 366.5,813.5 C 367.552,813.351 368.552,813.517 369.5,814C 373.067,816.945 376.4,820.111 379.5,823.5C 374.319,833.456 369.986,843.456 366.5,853.5C 375.5,847.5 384.5,841.5 393.5,835.5C 397.775,838.142 401.442,841.475 404.5,845.5C 394.217,858.783 383.217,871.45 371.5,883.5C 369.142,881.471 366.808,879.471 364.5,877.5C 371.813,868.386 379.479,859.553 387.5,851C 378.346,856.436 369.346,862.436 360.5,869C 358.956,870.187 357.289,870.52 355.5,870C 353.457,867.991 351.457,865.991 349.5,864C 355.4,853.372 360.567,842.539 365,831.5C 357.382,839.906 349.882,848.406 342.5,857C 341.833,857.667 341.167,857.667 340.5,857C 338.269,855.39 336.269,853.557 334.5,851.5C 345.588,839.088 356.255,826.421 366.5,813.5 Z"/></g>
<g><path style="opacity:1" fill="#506729" d="M 590.5,793.5 C 590.833,793.5 591.167,793.5 591.5,793.5C 590.861,803.227 591.528,812.56 593.5,821.5C 593.833,821.5 594.167,821.5 594.5,821.5C 595.791,821.263 596.791,821.596 597.5,822.5C 579.786,822.194 562.12,822.527 544.5,823.5C 545.287,821.896 546.62,821.229 548.5,821.5C 549.5,821.5 550.5,821.5 551.5,821.5C 564.5,821.5 577.5,821.5 590.5,821.5C 590.5,812.167 590.5,802.833 590.5,793.5 Z"/></g>
<g><path style="opacity:1" fill="#02903e" d="M 597.5,822.5 C 598.167,822.833 598.833,823.167 599.5,823.5C 599.833,824.5 600.5,825.167 601.5,825.5C 601.687,831.212 601.354,836.879 600.5,842.5C 599.662,842.842 599.328,843.508 599.5,844.5C 596.591,855.248 595.757,866.248 597,877.5C 597.39,880.104 598.224,882.438 599.5,884.5C 599.66,886.153 600.326,887.486 601.5,888.5C 603.062,892.392 605.395,895.725 608.5,898.5C 613.096,903.807 618.763,907.64 625.5,910C 632.95,912.79 640.617,914.623 648.5,915.5C 648.5,923.5 648.5,931.5 648.5,939.5C 599.167,939.5 549.833,939.5 500.5,939.5C 499.912,930.897 500.578,922.564 502.5,914.5C 508.087,913.225 513.42,911.225 518.5,908.5C 521.355,905.574 524.689,903.407 528.5,902C 529.252,901.329 529.586,900.496 529.5,899.5C 533.167,897.833 535.833,895.167 537.5,891.5C 537.5,891.167 537.5,890.833 537.5,890.5C 542.433,884.701 545.433,878.034 546.5,870.5C 547.648,866.019 547.815,861.352 547,856.5C 546.796,853.203 545.963,850.203 544.5,847.5C 543.034,846.653 542.2,845.32 542,843.5C 541.044,840.07 540.544,836.57 540.5,833C 540.237,829.014 541.57,825.847 544.5,823.5C 562.12,822.527 579.786,822.194 597.5,822.5 Z"/></g>
<g><path style="opacity:1" fill="#105f30" d="M 590.5,879.5 C 590.5,879.167 590.5,878.833 590.5,878.5C 590.5,863.833 590.5,849.167 590.5,834.5C 578.833,834.5 567.167,834.5 555.5,834.5C 554.504,849.324 554.171,864.324 554.5,879.5C 553.504,864.342 553.17,849.009 553.5,833.5C 566.167,833.5 578.833,833.5 591.5,833.5C 591.83,849.009 591.496,864.342 590.5,879.5 Z"/></g>
<g><path style="opacity:1" fill="#fefefe" d="M 555.5,835.5 C 566.833,835.5 578.167,835.5 589.5,835.5C 589.5,849.833 589.5,864.167 589.5,878.5C 578.167,878.5 566.833,878.5 555.5,878.5C 555.5,864.167 555.5,849.833 555.5,835.5 Z"/></g>
<g><path style="opacity:1" fill="#a8a3a3" d="M 555.5,835.5 C 555.5,835.167 555.5,834.833 555.5,834.5C 567.167,834.5 578.833,834.5 590.5,834.5C 590.5,849.167 590.5,863.833 590.5,878.5C 590.167,878.5 589.833,878.5 589.5,878.5C 589.5,864.167 589.5,849.833 589.5,835.5C 578.167,835.5 566.833,835.5 555.5,835.5 Z"/></g>
<g><path style="opacity:1" fill="#d7281f" d="M 745.5,842.5 C 744.791,841.596 743.791,841.263 742.5,841.5C 742.174,850.017 742.507,858.35 743.5,866.5C 752.408,870.479 761.408,874.479 770.5,878.5C 767.768,881.395 764.602,883.728 761,885.5C 757.644,883.737 754.144,882.404 750.5,881.5C 748.208,879.733 745.542,878.733 742.5,878.5C 742.5,885.167 742.5,891.833 742.5,898.5C 739.291,900.265 736.291,902.265 733.5,904.5C 732.833,894.167 732.167,883.833 731.5,873.5C 722.904,869.576 714.238,865.743 705.5,862C 709.01,859.818 712.51,857.651 716,855.5C 721.293,857.542 726.459,859.876 731.5,862.5C 732.167,856.167 732.833,849.833 733.5,843.5C 736.619,840.607 740.286,838.774 744.5,838C 746.204,835.243 748.538,833.91 751.5,834C 761.5,840 771.5,846 781.5,852C 782.332,852.688 782.998,852.521 783.5,851.5C 778.394,840.114 773.394,828.614 768.5,817C 771.312,815.023 773.978,812.856 776.5,810.5C 782.239,822.986 787.739,835.653 793,848.5C 794.655,852.432 795.655,856.432 796,860.5C 793.513,863.818 790.346,865.651 786.5,866C 772.445,858.645 758.778,850.812 745.5,842.5 Z"/></g>
<g><path style="opacity:1" fill="#ecebeb" d="M 599.5,844.5 C 600.833,857.833 600.833,871.167 599.5,884.5C 598.224,882.438 597.39,880.104 597,877.5C 595.757,866.248 596.591,855.248 599.5,844.5 Z"/></g>
<g><path style="opacity:1" fill="#95adc9" d="M 600.5,842.5 C 601.496,857.658 601.83,872.991 601.5,888.5C 600.326,887.486 599.66,886.153 599.5,884.5C 600.833,871.167 600.833,857.833 599.5,844.5C 599.328,843.508 599.662,842.842 600.5,842.5 Z"/></g>
<g><path style="opacity:1" fill="#9e6e7d" d="M 745.5,842.5 C 743.533,850.097 742.866,858.097 743.5,866.5C 742.507,858.35 742.174,850.017 742.5,841.5C 743.791,841.263 744.791,841.596 745.5,842.5 Z"/></g>
<g><path style="opacity:1" fill="#d7271f" d="M 411.5,854.5 C 426.951,853.041 436.617,859.708 440.5,874.5C 440.461,876.587 439.461,877.921 437.5,878.5C 435.181,877.936 432.847,877.436 430.5,877C 428.789,865.479 422.456,861.646 411.5,865.5C 405.586,870.585 402.253,877.085 401.5,885C 402.704,894.524 408.037,898.19 417.5,896C 419.359,894.308 421.359,892.808 423.5,891.5C 426.167,893.5 428.5,895.833 430.5,898.5C 422.961,906.864 413.961,908.698 403.5,904C 393.526,897.882 389.693,889.048 392,877.5C 394.795,866.55 401.295,858.883 411.5,854.5 Z"/></g>
<g><path style="opacity:1" fill="#17602e" d="M 544.5,847.5 C 545.963,850.203 546.796,853.203 547,856.5C 547.815,861.352 547.648,866.019 546.5,870.5C 546.397,862.78 545.73,855.113 544.5,847.5 Z"/></g>
<g><path style="opacity:1" fill="#d72820" d="M 453.5,868.5 C 457.987,871.081 462.654,873.081 467.5,874.5C 465.558,885.477 464.058,896.477 463,907.5C 469.942,899.271 477.109,891.271 484.5,883.5C 489.059,885.61 493.392,887.943 497.5,890.5C 490.863,905.774 483.696,920.774 476,935.5C 473.246,933.873 470.412,932.373 467.5,931C 472.741,921.031 477.241,910.864 481,900.5C 473.833,909 466.667,917.5 459.5,926C 455.557,926.24 452.223,924.907 449.5,922C 452.384,910.441 454.384,898.941 455.5,887.5C 450.405,898.025 445.072,908.358 439.5,918.5C 436.35,917.761 433.684,916.261 431.5,914C 438.433,898.634 445.766,883.467 453.5,868.5 Z"/></g>
<g><path style="opacity:1" fill="#d72820" d="M 680.5,873.5 C 681.822,873.33 682.989,873.663 684,874.5C 690.115,886.397 695.949,898.397 701.5,910.5C 708.486,906.756 715.653,903.423 723,900.5C 724.987,902.464 726.487,904.797 727.5,907.5C 716.855,913.323 705.855,918.323 694.5,922.5C 688.519,907.703 681.852,893.203 674.5,879C 675.904,876.473 677.904,874.64 680.5,873.5 Z"/></g>
<g><path style="opacity:1" fill="#9f7081" d="M 731.5,873.5 C 732.167,883.833 732.833,894.167 733.5,904.5C 733.44,905.043 733.107,905.376 732.5,905.5C 731.501,894.854 731.168,884.187 731.5,873.5 Z"/></g>
<g><path style="opacity:1" fill="#697069" d="M 555.5,834.5 C 555.5,834.833 555.5,835.167 555.5,835.5C 555.5,849.833 555.5,864.167 555.5,878.5C 566.833,878.5 578.167,878.5 589.5,878.5C 589.833,878.5 590.167,878.5 590.5,878.5C 590.5,878.833 590.5,879.167 590.5,879.5C 578.5,879.5 566.5,879.5 554.5,879.5C 554.171,864.324 554.504,849.324 555.5,834.5 Z"/></g>
<g><path style="opacity:1" fill="#8a859c" d="M 750.5,881.5 C 748.54,880.862 746.707,880.862 745,881.5C 744.667,880.833 744.333,880.167 744,879.5C 743.828,886.013 743.328,892.347 742.5,898.5C 742.5,891.833 742.5,885.167 742.5,878.5C 745.542,878.733 748.208,879.733 750.5,881.5 Z"/></g>
<g><path style="opacity:1" fill="#d7271f" d="M 835.5,891.5 C 840.74,895.233 845.574,899.566 850,904.5C 853.35,899.47 857.517,895.637 862.5,893C 864.019,894.351 865.352,895.851 866.5,897.5C 862.833,901.5 859.167,905.5 855.5,909.5C 859.833,914.167 864.167,918.833 868.5,923.5C 867.167,925.5 865.5,927.167 863.5,928.5C 858.848,924.349 854.348,920.015 850,915.5C 836.988,929.345 823.821,943.012 810.5,956.5C 807.901,955.101 806.401,953.101 806,950.5C 818.833,937 831.667,923.5 844.5,910C 839.985,905.652 835.651,901.152 831.5,896.5C 833.611,895.395 834.945,893.729 835.5,891.5 Z"/></g>
<g><path style="opacity:1" fill="#d7281f" d="M 311.5,893.5 C 314.272,894.436 316.272,896.27 317.5,899C 313.688,902.812 309.855,906.645 306,910.5C 305.333,911.5 305.333,912.5 306,913.5C 319.014,926.347 331.847,939.347 344.5,952.5C 342.517,953.982 340.684,955.649 339,957.5C 325.833,944.333 312.667,931.167 299.5,918C 298.833,917.333 298.167,917.333 297.5,918C 293.652,922.016 289.652,925.849 285.5,929.5C 283.5,928.167 281.833,926.5 280.5,924.5C 284.5,920.167 288.5,915.833 292.5,911.5C 289.5,907.833 286.167,904.5 282.5,901.5C 281.417,900.635 281.251,899.635 282,898.5C 283.333,897.167 284.667,895.833 286,894.5C 290.015,898.682 294.182,902.682 298.5,906.5C 303.263,902.404 307.596,898.07 311.5,893.5 Z"/></g>
<g><path style="opacity:1" fill="#d8261e" d="M 384.5,933.5 C 394.37,937.768 404.037,942.602 413.5,948C 423.656,953.803 426.156,961.969 421,972.5C 417.406,976.547 412.906,978.881 407.5,979.5C 415.798,991.464 413.464,1000.96 400.5,1008C 395.743,1008.81 391.076,1008.48 386.5,1007C 377.833,1002.67 369.167,998.333 360.5,994C 358.373,992.949 356.707,991.449 355.5,989.5C 365.162,970.843 374.829,952.176 384.5,933.5 Z"/></g>
<g><path style="opacity:1" fill="#1f7e66" d="M 502.5,914.5 C 500.578,922.564 499.912,930.897 500.5,939.5C 549.833,939.5 599.167,939.5 648.5,939.5C 599.003,940.499 549.336,940.832 499.5,940.5C 499.5,931.833 499.5,923.167 499.5,914.5C 500.5,914.5 501.5,914.5 502.5,914.5 Z"/></g>
<g><path style="opacity:1" fill="#d8261e" d="M 735.5,940.5 C 745.501,938.446 753.834,941.112 760.5,948.5C 757.505,951.325 754.338,953.992 751,956.5C 740.471,949.332 731.471,950.999 724,961.5C 720.83,976.666 725.997,988.166 739.5,996C 750.88,997.477 758.88,992.977 763.5,982.5C 762.611,979.721 761.444,977.055 760,974.5C 756.139,976.764 752.139,978.764 748,980.5C 745.804,977.952 743.971,975.118 742.5,972C 750.713,967.976 758.88,963.81 767,959.5C 770.985,967.303 774.819,975.136 778.5,983C 767.099,1005.37 749.766,1012.04 726.5,1003C 710.985,990.106 706.819,974.272 714,955.5C 719.409,947.916 726.576,942.916 735.5,940.5 Z"/></g>
<g><path style="opacity:1" fill="#6fc8ee" d="M 390.5,948.5 C 397.295,951.148 403.795,954.482 410,958.5C 412.734,967.105 409.567,970.938 400.5,970C 395.5,967.5 390.5,965 385.5,962.5C 384.417,961.635 384.251,960.635 385,959.5C 386.86,955.78 388.693,952.114 390.5,948.5 Z"/></g>
<g><path style="opacity:1" fill="#d8261e" d="M 695.5,959.5 C 697.144,959.286 698.644,959.62 700,960.5C 705.823,980.795 711.156,1001.13 716,1021.5C 712.019,1023.39 707.853,1024.22 703.5,1024C 692.317,1013.32 680.984,1002.82 669.5,992.5C 669.167,993 668.833,993.5 668.5,994C 672.017,1006.74 675.684,1019.41 679.5,1032C 675.622,1033.47 671.622,1034.3 667.5,1034.5C 662.303,1014.05 656.636,993.714 650.5,973.5C 653.952,971.715 657.619,970.382 661.5,969.5C 662.167,969.833 662.833,970.167 663.5,970.5C 675.048,981.848 686.881,992.848 699,1003.5C 695.834,989.486 692.334,975.486 688.5,961.5C 691.067,961.279 693.401,960.612 695.5,959.5 Z"/></g>
<g><path style="opacity:1" fill="#d8271f" d="M 450.5,963.5 C 455.211,964.126 459.711,965.459 464,967.5C 464.803,986.835 465.636,1006.17 466.5,1025.5C 466.167,1029.5 465.833,1033.5 465.5,1037.5C 461.409,1036.31 457.575,1034.64 454,1032.5C 453.501,1027.18 453.334,1021.84 453.5,1016.5C 445.169,1014.33 437.002,1011.67 429,1008.5C 425.833,1012.33 422.667,1016.17 419.5,1020C 414.898,1019.69 410.565,1018.36 406.5,1016C 421.378,998.627 436.044,981.127 450.5,963.5 Z"/></g>
<g><path style="opacity:1" fill="#71c7ec" d="M 378.5,971.5 C 386.647,974.159 393.814,978.493 400,984.5C 400.841,995.584 396.008,999.084 385.5,995C 380.758,992.88 376.258,990.38 372,987.5C 373.286,981.912 375.452,976.578 378.5,971.5 Z"/></g>
<g><path style="opacity:1" fill="#d82820" d="M 487.5,972.5 C 492.272,973.148 496.772,974.482 501,976.5C 506.087,992.098 511.753,1007.43 518,1022.5C 520.538,1008.81 523.205,995.142 526,981.5C 529.725,980.505 533.392,980.839 537,982.5C 533.376,1003.79 529.543,1025.13 525.5,1046.5C 521.78,1046.44 518.114,1045.94 514.5,1045C 513.572,1044.61 512.905,1043.95 512.5,1043C 507.315,1027.94 501.648,1013.1 495.5,998.5C 491.979,1011.26 489.146,1024.26 487,1037.5C 483.532,1038.8 480.032,1038.8 476.5,1037.5C 476.167,1036.83 475.833,1036.17 475.5,1035.5C 479.609,1014.51 483.609,993.508 487.5,972.5 Z"/></g>
<g><path style="opacity:1" fill="#d9271e" d="M 646.5,977.5 C 646.189,982.766 646.855,987.766 648.5,992.5C 649.479,995.625 649.813,998.958 649.5,1002.5C 650.107,1011.49 650.44,1020.49 650.5,1029.5C 648.848,1035.33 645.181,1039.49 639.5,1042C 636.568,1042.95 633.568,1043.45 630.5,1043.5C 624.797,1043.63 619.13,1043.29 613.5,1042.5C 608.409,1040.04 604.909,1036.04 603,1030.5C 600.067,1014.27 597.9,997.935 596.5,981.5C 600.481,980.979 604.481,980.646 608.5,980.5C 610.222,994.834 612.056,1009.17 614,1023.5C 617.31,1033.23 623.81,1036.07 633.5,1032C 635.79,1030.22 637.457,1028.06 638.5,1025.5C 639.619,1018.79 639.285,1012.12 637.5,1005.5C 636.182,999.617 635.515,993.617 635.5,987.5C 635.448,983.802 635.114,980.135 634.5,976.5C 638.336,975.622 642.336,974.956 646.5,974.5C 646.5,975.5 646.5,976.5 646.5,977.5 Z"/></g>
<g><path style="opacity:1" fill="#a95f69" d="M 608.5,980.5 C 604.481,980.646 600.481,980.979 596.5,981.5C 600.402,979.511 604.402,979.177 608.5,980.5 Z"/></g>
<g><path style="opacity:1" fill="#d82920" d="M 562.5,982.5 C 579.94,981.454 590.106,989.454 593,1006.5C 595.785,1019.55 593.119,1031.22 585,1041.5C 582.079,1043.71 578.912,1045.55 575.5,1047C 563.505,1047.5 551.505,1047.67 539.5,1047.5C 540.046,1033.51 540.38,1019.51 540.5,1005.5C 541.492,998.018 541.825,990.352 541.5,982.5C 548.5,982.5 555.5,982.5 562.5,982.5 Z"/></g>
<g><path style="opacity:1" fill="#a95f68" d="M 634.5,976.5 C 635.114,980.135 635.448,983.802 635.5,987.5C 634.579,984.86 633.912,982.027 633.5,979C 633.528,977.93 633.861,977.097 634.5,976.5 Z"/></g>
<g><path style="opacity:1" fill="#6ec8ee" d="M 452.5,979.5 C 453.135,988.234 452.468,996.567 450.5,1004.5C 445.695,1003.23 441.029,1001.57 436.5,999.5C 441.507,992.501 446.841,985.835 452.5,979.5 Z"/></g>
<g><path style="opacity:1" fill="#9f7281" d="M 562.5,982.5 C 555.5,982.5 548.5,982.5 541.5,982.5C 541.825,990.352 541.492,998.018 540.5,1005.5C 540.5,997.5 540.5,989.5 540.5,981.5C 548.019,981.175 555.352,981.508 562.5,982.5 Z"/></g>
<g><path style="opacity:1" fill="#b65254" d="M 646.5,977.5 C 647.889,982.269 648.556,987.269 648.5,992.5C 646.855,987.766 646.189,982.766 646.5,977.5 Z"/></g>
<g><path style="opacity:1" fill="#6eccf2" d="M 553.5,993.5 C 560.674,993.012 567.674,993.845 574.5,996C 579.275,1000.99 581.275,1006.99 580.5,1014C 581.757,1034.23 572.424,1042.07 552.5,1037.5C 553.119,1022.84 553.452,1008.17 553.5,993.5 Z"/></g>
<g><path style="opacity:1" fill="#9b5c68" d="M 452.5,979.5 C 453.493,987.984 453.826,996.651 453.5,1005.5C 452.209,1005.74 451.209,1005.4 450.5,1004.5C 452.468,996.567 453.135,988.234 452.5,979.5 Z"/></g>
<g><path style="opacity:1" fill="#bd4444" d="M 649.5,1002.5 C 651.55,1011.45 651.884,1020.45 650.5,1029.5C 650.44,1020.49 650.107,1011.49 649.5,1002.5 Z"/></g>
<g><path style="opacity:1" fill="#9e7180" d="M 637.5,1005.5 C 639.285,1012.12 639.619,1018.79 638.5,1025.5C 638.046,1018.84 637.713,1012.17 637.5,1005.5 Z"/></g>
<g><path style="opacity:1" fill="#b75257" d="M 613.5,1042.5 C 619.13,1043.29 624.797,1043.63 630.5,1043.5C 628.359,1044.16 626.025,1044.5 623.5,1044.5C 619.859,1044.69 616.526,1044.02 613.5,1042.5 Z"/></g>
</svg>
