<svg xmlns="http://www.w3.org/2000/svg" width="52.539" height="50" viewBox="0 0 52.539 50">
<path d="M130.326,145.562a2.595,2.595,0,1,0,.755,1.828,2.594,2.594,0,0,0-.755-1.828Zm-1.833,4.151a2.321,2.321,0,1,1,2.322-2.323A2.321,2.321,0,0,1,128.493,149.713Zm1.3-.7-.927-1.589a1.028,1.028,0,0,0,.57-.267.875.875,0,0,0,0-1.17,1.012,1.012,0,0,0-.734-.26h-1.113V149h.336V146.06h.777a.69.69,0,0,1,.5.162.492.492,0,0,1,.131.349c0,.468-.464.539-.739.539H128.3l.147.25.961,1.651h.385Zm-24.273.85H87.8c-4.447,0-6.88-1.613-7.138-8.417-.222-5.726,2.554-7.6,5.273-8.417a24.083,24.083,0,0,1,10.367-.315v5.616a36.248,36.248,0,0,0-5.471-.085c-1.809.223-2.686,1.134-2.628,2.832.083,1.924,1.014,2.515,2.037,2.663h7.8V129.313a1.98,1.98,0,0,0-.716-1.9c-.791-.5-5.271-.848-7.281.028-1.018.453-1.133,1.393-1.185,2.548l-7.338.018c.087-2.462-.286-6.843,4.214-8.372,2.214-.738,12.194-2.044,16.693.567,2.329,1.358,3.09,3.374,3.09,6.013v21.649Zm3.09-28.522h17.049a6.093,6.093,0,0,1,5.691,3.734c1.761,3.687,1.369,11.349-.447,13.964a6.576,6.576,0,0,1-5.631,3.041H117.73v-5.925h4.252c2.214,0,3.451-.052,3.451-4.5,0-2.608-.106-4.332-2.49-4.332h-7v22.542h-7.34V121.341ZM98.869,99.987h4.97v7.576l4.889-7.576h5.839l-5.239,7.67h1.264a3.455,3.455,0,0,1,3.476,3.5v7.37H109.22v-6.287a.688.688,0,0,0-.714-.7H103.84v6.974H98.869Zm-18.924,0h5.4l4.058,7.652,4.047-7.652h5.408l-6.931,12.335v6.189H87v-6.356Zm36.1,0h4.973v7.576l4.883-7.576h5.841l-5.24,7.67h1.264a3.464,3.464,0,0,1,3.487,3.5v7.358h-4.861v-6.275a.685.685,0,0,0-.714-.7h-4.66v6.979h-4.973V99.987Z" transform="translate(-79.945 -99.987)" fill="#0084b9" fill-rule="evenodd"/>
</svg>